# AST/ASF file generated using VICON BodyLanguage
# -----------------------------------------------
:version 1.10
:name VICON
:units
  mass 1.0
  length 0.45
  angle deg
:documentation
   .ast/.asf automatically generated from VICON data using
   VICON BodyBuilder and BodyLanguage model FoxedUp or BRILLIANT.MOD
:root
   order TX TY TZ RX RY RZ
   axis XYZ
   position 0 0 0  
   orientation 0 0 0 
:bonedata
  begin
     id 1 
     name lhipjoint
     direction 0.671379 -0.66392 0.329334 
     length 2.38647 
     axis 0 0 0  XYZ
  end
  begin
     id 2 
     name lfemur
     direction 0.34202 -0.939693 0  
     length 6.48179  
     axis 0 0 20  XYZ
    dof rx ry rz
    limits (-160.0 20.0)
           (-70.0 70.0)
           (-60.0 70.0)
  end
  begin
     id 3 
     name ltibia
     direction 0.34202 -0.939693 0   
     length 6.86524   
     axis 0 0 20   XYZ
    dof rx
    limits (-10.0 170.0)
  end
  begin
     id 4 
     name lfoot
     direction 0.204886 -0.562919 0.800715   
     length 1.73031   
     axis -90 7.62852e-016 20   XYZ
    dof rx rz
    limits (-45.0 90.0)
           (-70.0 20.0)
  end
  begin
     id 5 
     name ltoes
     direction 1.53548e-011 -4.21841e-011 1   
     length 0.828161   
     axis -90 7.62852e-016 20   XYZ
    dof rx
    limits (-90.0 20.0)
  end
  begin
     id 6 
     name rhipjoint
     direction -0.662732 -0.670855 0.332775   
     length 2.3618  
     axis 0 0 0  XYZ 
  end
  begin
     id 7 
     name rfemur
     direction -0.34202 -0.939693 0   
     length 6.3025   
     axis 0 0 -20   XYZ
    dof rx ry rz
    limits (-160.0 20.0)
           (-70.0 70.0)
           (-70.0 60.0)
  end
  begin
     id 8 
     name rtibia
     direction -0.34202 -0.939693 0   
     length 6.8732   
     axis 0 0 -20   XYZ
    dof rx
    limits (-10.0 170.0)
 end
 begin
     id 9 
     name rfoot
     direction -0.173856 -0.477665 0.861168   
     length 1.54784  
     axis -90 -7.62852e-016 -20   XYZ
    dof rx rz
    limits (-45.0 90.0)
           (-20.0 70.0)
  end
  begin
     id 10 
     name rtoes
     direction -1.53562e-011 -4.21802e-011 1   
     length 0.759618   
     axis -90 -7.62852e-016 -20   XYZ
    dof rx
    limits (-90.0 20.0)
  end
  begin
     id 11 
     name lowerback
     direction -0.0278357 0.999497 -0.0151789   
     length 1.97203   
     axis 0 0 0   XYZ
    dof rx ry rz
    limits (-20.0 45.0)
           (-30.0 30.0)
           (-30.0 30.0)
  end
  begin
     id 12 
     name upperback
     direction -0.00360622 0.997542 0.0699804   
     length 1.94709   
     axis 0 0 0   XYZ
    dof rx ry rz
    limits (-20.0 45.0)
           (-30.0 30.0)
           (-30.0 30.0)
  end
  begin
     id 13 
     name thorax
     direction 0.00907706 0.997048 0.0762461   
     length 1.95722   
     axis 0 0 0   XYZ
    dof rx ry rz
    limits (-20.0 45.0)
           (-30.0 30.0)
           (-30.0 30.0)
  end
  begin
     id 14 
     name lowerneck
     direction -0.0481835 0.99872 -0.0153927   
     length 1.63078   
     axis 0 0 0   XYZ
    dof rx ry rz
    limits (-20.0 45.0)
           (-30.0 30.0)
           (-30.0 30.0)
  end
  begin
     id 15 
     name upperneck
     direction 0.0859716 0.979226 -0.183644   
     length 1.62591   
     axis 0 0 0   XYZ
    dof rx ry rz
    limits (-20.0 45.0)
           (-30.0 30.0)
           (-30.0 30.0)
  end
  begin
     id 16
     name head
     direction 0.0324821 0.997629 -0.0606773  
     length 1.64811  
     axis 0 0 0   XYZ
    dof rx ry rz
    limits (-20.0 45.0)
           (-30.0 30.0)
           (-30.0 30.0)
  end
  begin
     id 17 
     name lclavicle
     direction 0.939609 0.311019 0.142835  
     length 3.70647  
     axis 0 0 0   XYZ
    dof ry rz
    limits (-20.0 10.0)
           (0.0 20.0)
  end
  begin
     id 18 
     name lhumerus
     direction 1 -4.48963e-011 -1.59838e-027   
     length 4.59207   
     axis 180 -30 -90   XYZ
    dof rx ry rz
    limits (-60.0 90.0)
           (-90.0 90.0)
           (-90.0 90.0)
  end
  begin
     id 19
     name lradius
     direction 1 -4.48957e-011 -1.3483e-026   
     length 2.98109   
     axis 180 -30 -90   XYZ
    dof rx
    limits (-10.0 170.0)
  end
  begin
     id 20
     name lwrist
     direction 1 -4.48954e-011 -3.11579e-026   
     length 1.49055   
     axis 2.00652e-014 90 90   XYZ
    dof ry
    limits (-180.0 0.0)
 end
  begin
     id 21 
     name lhand
     direction 1 -4.4911e-011 -6.23158e-026   
     length 0.480203   
     axis 3.97628e-014 90 90   XYZ
    dof rx rz
    limits (-90.0 90.0)
           (-45.0 45.0)
  end
  begin
     id 22 
     name lfingers
     direction 1 -4.48893e-011 -1.24632e-025   
     length 0.387152   
     axis 7.95256e-014 90 90   XYZ
    dof rx
    limits (0.0 90.0)
  end
  begin
     id 23
     name lthumb
     direction 0.707107 -6.35013e-011 0.707107   
     length 0.555875   
     axis -90 45 2.85299e-015   XYZ
    dof rx rz
    limits (-45.0 45.0)
           (-45.0 45.0)
  end
  begin
     id 24 
     name rclavicle
     direction -0.950396 0.30392 0.0661859   
     length 3.70894  
     axis 0 0 0   XYZ 
    dof ry rz
    limits (-10.0 20.0)
           (-20.0 0.0)
  end
  begin
     id 25 
     name rhumerus
     direction -1 -4.48957e-011 -2.96677e-027  
     length 4.76508   
     axis 180 30 90   XYZ
    dof rx ry rz
    limits (-90.0 60.0)
           (-90.0 90.0)
           (-90.0 90.0)
  end
  begin
     id 26 
     name rradius
     direction -1 -4.48974e-011 -1.44501e-026   
     length 2.78902   
     axis 180 30 90   XYZ
    dof rx
    limits (-10.0 170.0)
  end
  begin
     id 27 
     name rwrist
     direction -1 -4.48978e-011 -3.11579e-026   
     length 1.39451   
     axis 2.00652e-014 -90 -90   XYZ
    dof ry
    limits (-180.0 0.0)
  end
  begin
     id 28
     name rhand
     direction -1 -4.48956e-011 -6.23158e-026   
     length 0.721303   
     axis 3.97628e-014 -90 -90   XYZ
    dof rx rz
    limits (-90.0 90.0)
           (-45.0 45.0)
  end
  begin
     id 29
     name rfingers
     direction -1 -4.4899e-011 -1.24632e-025   
     length 0.581533   
     axis 7.95256e-014 -90 -90   XYZ
    dof rx
    limits (0.0 90.0)
  end
  begin
     id 30
     name rthumb
     direction -0.707107 -6.34911e-011 0.707107   
     length 0.834968   
     axis -90 -45 -2.85299e-015   XYZ
    dof rx rz
    limits (-45.0 45.0)
           (-45.0 45.0)
  end
:hierarchy
  begin
    root lhipjoint rhipjoint lowerback
    lhipjoint lfemur
    lfemur ltibia
    ltibia lfoot
    lfoot ltoes
    rhipjoint rfemur
    rfemur rtibia
    rtibia rfoot
    rfoot rtoes
    lowerback upperback
    upperback thorax
    thorax lowerneck lclavicle rclavicle
    lowerneck upperneck
    upperneck head
    lclavicle lhumerus
    lhumerus lradius
    lradius lwrist
    lwrist lhand lthumb
    lhand lfingers
    rclavicle rhumerus
    rhumerus rradius
    rradius rwrist
    rwrist rhand rthumb
    rhand rfingers
  end

#!OML:ASF I:\salsa\salsa 7_09\Patient 1\Session 1\dancerfemale.ASF
:FULLY-SPECIFIED
:DEGREES
1925
root 14.6664 15.7383 -0.676459 -2893.63 -411.109 17.529
lowerback 10.2504 -1.18064 -5.82349
upperback -3.17831 -3.05459 -6.19582
thorax -9.26164 -1.40562 -2.81458
lowerneck 4.21687 -8.70293 -18.879
upperneck -0.959579 -13.0614 25.8116
head 2.11535 -6.87931 10.9931
rclavicle 8.32162e-014 -3.18055e-014
rhumerus 16.1705 -27.6002 -32.0331
rradius 40.9204
rwrist 9.43821
rhand -0.544677 63.2317
rfingers 7.12502
rthumb 25.0686 34.857
lclavicle 8.32162e-014 -3.18055e-014
lhumerus 41.8024 -9.9584 68.3404
lradius 86.3027
lwrist -27.708
lhand -36.1911 -347.72
lfingers 7.12502
lthumb -9.29424 -1037.94
rfemur -31.9075 -20.5355 16.7459
rtibia 41.5842
rfoot -28.7625 -29.3922
rtoes 21.4165
lfemur -3.22834 3.16494 -33.1512
ltibia 31.8664
lfoot -22.7193 -19.7847
ltoes -26.2962
1926
root 14.4616 15.7612 -0.656301 -2893.14 -413.175 16.7753
lowerback 9.69581 -1.24677 -5.97382
upperback -3.54634 -3.08583 -5.6851
thorax -9.2989 -1.38745 -2.18693
lowerneck 3.52521 -8.0416 -18.7317
upperneck 0.238592 -12.2291 25.6621
head 2.34795 -6.39845 10.9495
rclavicle -7.98866e-014 -4.77083e-015
rhumerus 18.1373 -26.6181 -32.1842
rradius 40.563
rwrist 9.6196
rhand -0.228028 63.1232
rfingers 7.12502
rthumb 25.3719 34.7912
lclavicle -7.98866e-014 -4.77083e-015
lhumerus 42.5786 -11.0321 68.1891
lradius 85.8137
lwrist -27.7252
lhand -36.3298 -347.732
lfingers 7.12502
lthumb -9.42801 -1037.96
rfemur -31.0982 -19.9761 18.3542
rtibia 41.1539
rfoot -28.5457 -28.2963
rtoes 19.1588
lfemur -3.83378 3.18334 -32.1869
ltibia 34.2499
lfoot -22.8369 -16.9032
ltoes -30.3381
1927
root 14.2545 15.7951 -0.651441 -2892.61 -415.279 15.9343
lowerback 9.13194 -1.28695 -6.88446
upperback -3.82705 -3.11159 -4.6431
thorax -9.16438 -1.29985 -0.57167
lowerneck 2.84856 -7.30345 -19.0433
upperneck 1.27418 -11.2541 25.4089
head 2.52391 -5.84883 10.9693
rclavicle -2.39039e-014 4.21423e-014
rhumerus 20.6886 -25.5928 -32.1474
rradius 40.1386
rwrist 9.77813
rhand -0.129115 63.3559
rfingers 7.12502
rthumb 25.4667 35.0374
lclavicle -2.39039e-014 4.21423e-014
lhumerus 43.2678 -11.7675 69.2763
lradius 85.1909
lwrist -28.1479
lhand -36.1076 -347.78
lfingers 7.12502
lthumb -9.2136 -1038
rfemur -29.9285 -19.5966 20.0039
rtibia 40.3314
rfoot -28.3993 -26.9274
rtoes 16.4507
lfemur -4.80047 3.28195 -31.0933
ltibia 37.3123
lfoot -22.1107 -14.4152
ltoes -33.531
1928
root 14.0488 15.8228 -0.663033 -2892.1 -417.382 15.1004
lowerback 8.53139 -1.1649 -8.30665
upperback -4.01415 -2.9497 -3.4316
thorax -8.89421 -1.09229 1.46547
lowerneck 2.50474 -6.73322 -18.8467
upperneck 1.91473 -10.4348 24.6136
head 2.50569 -5.39981 10.699
rclavicle -7.1811e-015 -1.98785e-015
rhumerus 22.8833 -24.7852 -31.5705
rradius 39.8328
rwrist 9.78577
rhand -0.271962 63.8425
rfingers 7.12502
rthumb 25.3299 35.5045
lclavicle -7.1811e-015 -1.98785e-015
lhumerus 44.1287 -12.7501 71.2274
lradius 84.4766
lwrist -28.7953
lhand -35.7872 -347.669
lfingers 7.12502
lthumb -8.90448 -1037.88
rfemur -28.5669 -19.1261 21.5647
rtibia 39.297
rfoot -28.2827 -25.3354
rtoes 14.8654
lfemur -6.3393 4.08185 -29.7473
ltibia 41.1969
lfoot -20.3758 -13.2521
ltoes -36.2507
1929
root 13.8483 15.8541 -0.687636 -2891.4 -419.523 14.1496
lowerback 7.85124 -1.00302 -9.82731
upperback -4.18788 -2.73184 -2.25472
thorax -8.59556 -0.860983 3.50866
lowerneck 2.38299 -6.24547 -17.9718
upperneck 2.43851 -9.69755 23.2796
head 2.38033 -5.00297 10.1122
rclavicle -3.81915e-014 -3.73715e-014
rhumerus 24.6961 -23.9481 -30.654
rradius 39.7049
rwrist 9.41074
rhand -0.0237001 64.2111
rfingers 7.12502
rthumb 25.5677 35.9071
lclavicle -3.81915e-014 -3.73715e-014
lhumerus 45.0009 -13.9446 73.2968
lradius 83.5389
lwrist -29.2669
lhand -35.961 -347.227
lfingers 7.12502
lthumb -9.07218 -1037.44
rfemur -27.2035 -18.4451 23.1198
rtibia 38.135
rfoot -27.9792 -24.0738
rtoes 13.4606
lfemur -8.61831 5.76802 -27.989
ltibia 45.8965
lfoot -17.3748 -13.5807
ltoes -38.6107
